<svg xmlns="http://www.w3.org/2000/svg" width="256" height="256" viewBox="0 0 100 100"><rect width="100" height="100" rx="50" fill="#00a755"></rect><path fill="#fff" d="M45.17 34.98L45.17 34.98Q45.17 36.80 44.26 38.13Q43.35 39.47 42.16 40.23L42.16 40.23Q40.34 39.05 38.27 38.20Q36.21 37.37 33.48 37.37L33.48 37.37Q28.09 37.37 25.22 40.69Q22.35 44.02 22.35 50.04L22.35 50.04Q22.35 56.27 25.46 59.45Q28.58 62.64 34.11 62.64L34.11 62.64Q36.98 62.64 38.97 61.87Q40.97 61.10 42.79 60.12L42.79 60.12Q43.98 61.10 44.64 62.46Q45.31 63.83 45.31 65.65L45.31 65.65Q45.31 67.26 44.47 68.59Q43.63 69.92 41.60 70.83L41.60 70.83Q40.34 71.39 38.03 71.95Q35.72 72.51 32.43 72.51L32.43 72.51Q27.67 72.51 23.54 71.18Q19.41 69.84 16.33 67.12Q13.25 64.39 11.50 60.15Q9.75 55.92 9.75 50.04L9.75 50.04Q9.75 44.58 11.46 40.38Q13.18 36.18 16.15 33.30Q19.13 30.44 23.12 28.97Q27.11 27.49 31.66 27.49L31.66 27.49Q38.10 27.49 41.63 29.59Q45.17 31.70 45.17 34.98ZM90.25 50.04L90.25 64.45Q90.25 66.63 89.48 67.68Q88.71 68.73 87.03 69.70L87.03 69.70Q86.05 70.27 84.58 70.79Q83.11 71.31 81.36 71.70Q79.61 72.09 77.69 72.30Q75.76 72.51 73.87 72.51L73.87 72.51Q68.83 72.51 64.42 71.21Q60.01 69.92 56.75 67.19Q53.50 64.45 51.61 60.22Q49.72 55.98 49.72 50.11L49.72 50.11Q49.72 44.58 51.61 40.38Q53.50 36.18 56.79 33.30Q60.08 30.44 64.49 28.97Q68.90 27.49 74.01 27.49L74.01 27.49Q80.66 27.49 84.55 29.59Q88.43 31.70 88.43 35.13L88.43 35.13Q88.43 36.95 87.52 38.27Q86.61 39.61 85.42 40.38L85.42 40.38Q83.67 39.33 81.01 38.34Q78.35 37.37 74.92 37.37L74.92 37.37Q72.12 37.37 69.81 38.27Q67.50 39.19 65.82 40.83Q64.14 42.48 63.23 44.82Q62.32 47.17 62.32 50.04L62.32 50.04Q62.32 53.19 63.19 55.57Q64.07 57.95 65.64 59.52Q67.22 61.10 69.35 61.90Q71.49 62.71 74.08 62.71L74.08 62.71Q75.62 62.71 76.78 62.43Q77.93 62.15 78.56 61.80L78.56 61.80L78.56 55.08L71.07 55.08Q70.65 54.31 70.27 53.05Q69.88 51.79 69.88 50.39L69.88 50.39Q69.88 47.87 71.03 46.75Q72.19 45.63 74.01 45.63L74.01 45.63L85.84 45.63Q87.94 45.63 89.09 46.78Q90.25 47.94 90.25 50.04L90.25 50.04Z"></path></svg>