<svg id="Layer_1" enable-background="new 0 0 512 512" height="512" viewBox="0 0 512 512" width="512" xmlns="http://www.w3.org/2000/svg"><g><g><path d="m108.464 163.735c-10.874 1.074-19.061-9.689-15.179-19.903l19.682-51.781c27.537-73.651 112.482-110.843 183.476-82.415l-.01-.004c46.435 21.691 68.813 76.187 50.198 124.851-7.614 19.905-21.099 35.983-37.761 46.967-28.778 18.971-65.508 20.837-96.625 6.012-46.142-21.984-79.563-26.119-103.781-23.727z" fill="#8cea79"/><g><path d="m113.653 138.862-18.61 18.728c2.887 4.076 7.794 6.701 13.428 6.145 24.218-2.392 57.639 1.743 103.782 23.728 31.117 14.826 67.847 12.96 96.625-6.012 16.662-10.984 30.147-27.062 37.761-46.967 6.342-16.58 7.731-29.885 5.226-46.291-83.177-29.255-175.824-12.119-238.212 50.669z" fill="#00e1c0"/></g></g><path d="m353.185 63.93c-8.846-23.273-26.347-43.134-50.244-54.297l.01.003c-70.995-28.428-155.94 8.764-183.477 82.414l-13.815 36.347 7.802 25.914c64.326-64.738 155.431-77.716 239.724-90.381z" fill="#8cea79"/><path d="m424.088 90.176-53.852-20.469c-5.641-2.144-11.328-4.068-17.051-5.777 4.736 12.46 6.985 25.892 6.391 39.506l51.964 19.751c9.116 3.463 19.314-1.117 22.779-10.232 3.465-9.116-1.116-19.315-10.231-22.779z" fill="#005357"/><g><g><path d="m455.159 254.112c6.565-8.003 19.259-6.278 23.5 3.165l21.502 47.87c30.888 67.781-1.099 149.595-67.697 178.107l.009-.004c-45.634 16.575-97.128-4.94-117.257-50.007-8.233-18.434-9.97-38.236-6.167-56.755 6.569-31.985 29.923-57.838 60.698-68.751 45.635-16.184 70.792-35.801 85.412-53.625z" fill="#8cea79"/><g><g><path d="m468.345 274.249-.08-25.011c-4.664-.797-9.709.732-13.111 4.879-14.62 17.824-39.777 37.442-85.413 53.624-30.775 10.913-54.129 36.766-60.698 68.752-3.803 18.519-2.066 38.322 6.167 56.755 6.858 15.355 14.84 25.197 27.508 34.509 75.313-36.12 125.894-109.659 125.627-193.508z" fill="#00dd7b"/></g></g></g><g><path d="m362.446 480.534c21.515 9.664 46.542 11.245 70.027 2.715l-.009.004c66.598-28.513 98.586-110.326 67.697-178.107l-15.093-33.601-22.585-12.132c.276 86.454-52.057 156.174-100.037 221.121z" fill="#00bd9f"/><path d="m297.371 510.448 49.784-22.362c5.214-2.342 10.313-4.863 15.291-7.552-11.518-5.174-22.023-12.665-30.744-22.182l-48.038 21.578c-8.426 3.787-12.189 13.686-8.405 22.113 3.785 8.427 13.685 12.19 22.112 8.405z" fill="#005357"/><path d="m362.446 480.534c75.292-40.662 122.906-119.89 122.631-206.344l-.008-2.646-6.409-14.269c-4.241-9.443-16.935-11.168-23.5-3.165-1.129 1.376-2.329 2.764-3.588 4.16l.051 16.026c.252 78.974-46.134 150.912-118.175 183.271l-1.745.784c8.72 9.518 19.224 17.009 30.743 22.183z" fill="#009985"/></g></g><g><g><path d="m56.325 256.453c-6.505-7.931-19.084-6.221-23.287 3.136l-21.307 47.435c-30.608 67.165 1.089 148.236 67.083 176.49l-.009-.004c45.22 16.424 96.246-4.895 116.192-49.552 8.159-18.266 9.88-37.889 6.111-56.24-6.509-31.695-29.651-57.313-60.147-68.127-45.22-16.036-70.149-35.475-84.636-53.138z" fill="#8cea79"/><g><path d="m43.259 276.407.079-24.784c4.622-.789 9.621.725 12.992 4.834 14.487 17.662 39.416 37.102 84.637 53.137 30.496 10.814 53.637 36.432 60.146 68.127 3.769 18.351 2.048 37.974-6.111 56.24-6.796 15.215-14.705 24.968-27.258 34.196-74.629-35.791-124.75-108.662-124.485-191.75z" fill="#00e1c0"/></g></g><g><path d="m148.196 480.819c-21.32 9.577-46.12 11.143-69.391 2.69l.009.004c-65.994-28.253-97.691-109.324-67.083-176.489l14.956-33.296 22.38-12.022c-.273 85.669 51.585 154.756 99.129 219.113z" fill="#8cea79"/><path d="m212.68 510.461-49.332-22.159c-5.167-2.321-10.219-4.819-15.152-7.483 11.414-5.127 21.823-12.55 30.465-21.98l47.602 21.382c8.349 3.753 12.079 13.561 8.329 21.912-3.751 8.35-13.562 12.079-21.912 8.328z" fill="#007779"/><path d="m148.196 480.819c-74.608-40.293-121.79-118.801-121.517-204.469l.008-2.622 6.351-14.139c4.203-9.357 16.782-11.066 23.287-3.136 1.119 1.364 2.308 2.739 3.555 4.122l-.051 15.881c-.25 78.256 45.715 149.542 117.102 181.607l1.73.777c-8.642 9.43-19.051 16.852-30.465 21.979z" fill="#00bd9f"/></g></g><path d="m254.151.079v81.68c32.733-7.985 66.394-12.925 99.034-17.83-8.846-23.273-26.347-43.148-50.244-54.31l.01.003c-15.837-6.34-32.367-9.408-48.8-9.543z" fill="#00dd7b"/><path d="m254.296 75.557v121.427c21.3 1.706 42.883-3.424 61.234-15.522 16.662-10.984 30.147-27.062 37.761-46.967 6.342-16.58 7.731-29.885 5.226-46.291-34.062-11.98-69.711-16.175-104.221-12.647z" fill="#00bd9f"/><path d="m353.027 64.361c-88.668-26.48-185.662-5.18-251.561 61.14l-1.987 2.03-6.258 16.59c-3.977 10.464 4.172 20.929 15.769 19.612 1.913-.217 3.895-.333 5.924-.437l12.216-12.294c60.197-60.583 155.692-82.112 230.511-49.777l1.934.735c.608-13.947-1.697-24.834-6.548-37.599z" fill="#00bd9f"/><path d="m254.151 54.342.147 33.851c34.306-4.672 69.743 1.735 103.39 14.524l2 .758c.594-13.613-1.767-27.086-6.503-39.546-32.544-9.718-66.237-13.407-99.034-9.587z" fill="#009985"/></g></svg>