<?xml version="1.0" encoding="UTF-8" standalone="no"?>
<!DOCTYPE svg PUBLIC "-//W3C//DTD SVG 1.1//EN" "http://www.w3.org/Graphics/SVG/1.1/DTD/svg11.dtd">
<svg width="100%" height="100%" viewBox="0 0 864 389" version="1.1" xmlns="http://www.w3.org/2000/svg" xmlns:xlink="http://www.w3.org/1999/xlink" xml:space="preserve" xmlns:serif="http://www.serif.com/" style="fill-rule:evenodd;clip-rule:evenodd;stroke-linecap:round;stroke-linejoin:round;stroke-miterlimit:1.5;">
    <g transform="matrix(0.895416,0,0,1.16253,-18.6372,-593.651)">
        <path d="M976.265,597.809C976.265,553.662 929.731,517.821 872.415,517.821L133.971,517.821C76.655,517.821 30.121,553.662 30.121,597.809L30.121,757.786C30.121,801.933 76.655,837.774 133.971,837.774L872.415,837.774C929.731,837.774 976.265,801.933 976.265,757.786L976.265,597.809Z" style="fill:white;stroke:rgb(0,225,192);stroke-width:16.06px;"/>
    </g>
    <g transform="matrix(0.515267,0,0,0.515267,73.7657,65.1576)">
        <g>
            <path d="M108.464,163.735C97.59,164.809 89.403,154.046 93.285,143.832L112.967,92.051C140.504,18.4 225.449,-18.792 296.443,9.636L296.433,9.632C342.868,31.323 365.246,85.819 346.631,134.483C339.017,154.388 325.532,170.466 308.87,181.45C280.092,200.421 243.362,202.287 212.245,187.462C166.103,165.478 132.682,161.343 108.464,163.735Z" style="fill:rgb(140,234,121);fill-rule:nonzero;"/>
            <g>
                <path d="M113.653,138.862L95.043,157.59C97.93,161.666 102.837,164.291 108.471,163.735C132.689,161.343 166.11,165.478 212.253,187.463C243.37,202.289 280.1,200.423 308.878,181.451C325.54,170.467 339.025,154.389 346.639,134.484C352.981,117.904 354.37,104.599 351.865,88.193C268.688,58.938 176.041,76.074 113.653,138.862Z" style="fill:rgb(0,225,192);fill-rule:nonzero;"/>
            </g>
        </g>
        <path d="M353.185,63.93C344.339,40.657 326.838,20.796 302.941,9.633L302.951,9.636C231.956,-18.792 147.011,18.4 119.474,92.05L105.659,128.397L113.461,154.311C177.787,89.573 268.892,76.595 353.185,63.93Z" style="fill:rgb(140,234,121);fill-rule:nonzero;"/>
        <path d="M424.088,90.176L370.236,69.707C364.595,67.563 358.908,65.639 353.185,63.93C357.921,76.39 360.17,89.822 359.576,103.436L411.54,123.187C420.656,126.65 430.854,122.07 434.319,112.955C437.784,103.839 433.203,93.64 424.088,90.176Z" style="fill:rgb(0,83,87);fill-rule:nonzero;"/>
        <g>
            <g>
                <path d="M455.159,254.112C461.724,246.109 474.418,247.834 478.659,257.277L500.161,305.147C531.049,372.928 499.062,454.742 432.464,483.254L432.473,483.25C386.839,499.825 335.345,478.31 315.216,433.243C306.983,414.809 305.246,395.007 309.049,376.488C315.618,344.503 338.972,318.65 369.747,307.737C415.382,291.553 440.539,271.936 455.159,254.112Z" style="fill:rgb(140,234,121);fill-rule:nonzero;"/>
                <g>
                    <g>
                        <path d="M468.345,274.249L468.265,249.238C463.601,248.441 458.556,249.97 455.154,254.117C440.534,271.941 415.377,291.559 369.741,307.741C338.966,318.654 315.612,344.507 309.043,376.493C305.24,395.012 306.977,414.815 315.21,433.248C322.068,448.603 330.05,458.445 342.718,467.757C418.031,431.637 468.612,358.098 468.345,274.249Z" style="fill:rgb(0,221,123);fill-rule:nonzero;"/>
                    </g>
                </g>
            </g>
            <g>
                <path d="M362.446,480.534C383.961,490.198 408.988,491.779 432.473,483.249L432.464,483.253C499.062,454.74 531.05,372.927 500.161,305.146L485.068,271.545L462.483,259.413C462.759,345.867 410.426,415.587 362.446,480.534Z" style="fill:rgb(0,189,159);fill-rule:nonzero;"/>
                <path d="M297.371,510.448L347.155,488.086C352.369,485.744 357.468,483.223 362.446,480.534C350.928,475.36 340.423,467.869 331.702,458.352L283.664,479.93C275.238,483.717 271.475,493.616 275.259,502.043C279.044,510.47 288.944,514.233 297.371,510.448Z" style="fill:rgb(0,83,87);fill-rule:nonzero;"/>
                <path d="M362.446,480.534C437.738,439.872 485.352,360.644 485.077,274.19L485.069,271.544L478.66,257.275C474.419,247.832 461.725,246.107 455.16,254.11C454.031,255.486 452.831,256.874 451.572,258.27L451.623,274.296C451.875,353.27 405.489,425.208 333.448,457.567L331.703,458.351C340.423,467.869 350.927,475.36 362.446,480.534Z" style="fill:rgb(0,153,133);fill-rule:nonzero;"/>
            </g>
        </g>
        <g>
            <g>
                <path d="M56.325,256.453C49.82,248.522 37.241,250.232 33.038,259.589L11.731,307.024C-18.877,374.189 12.82,455.26 78.814,483.514L78.805,483.51C124.025,499.934 175.051,478.615 194.997,433.958C203.156,415.692 204.877,396.069 201.108,377.718C194.599,346.023 171.457,320.405 140.961,309.591C95.741,293.555 70.812,274.116 56.325,256.453Z" style="fill:rgb(140,234,121);fill-rule:nonzero;"/>
                <g>
                    <path d="M43.259,276.407L43.338,251.623C47.96,250.834 52.959,252.348 56.33,256.457C70.817,274.119 95.746,293.559 140.967,309.594C171.463,320.408 194.604,346.026 201.113,377.721C204.882,396.072 203.161,415.695 195.002,433.961C188.206,449.176 180.297,458.929 167.744,468.157C93.115,432.366 42.994,359.495 43.259,276.407Z" style="fill:rgb(0,225,192);fill-rule:nonzero;"/>
                </g>
            </g>
            <g>
                <path d="M148.196,480.819C126.876,490.396 102.076,491.962 78.805,483.509L78.814,483.513C12.82,455.26 -18.877,374.189 11.731,307.024L26.687,273.728L49.067,261.706C48.794,347.375 100.652,416.462 148.196,480.819Z" style="fill:rgb(140,234,121);fill-rule:nonzero;"/>
                <path d="M212.68,510.461L163.348,488.302C158.181,485.981 153.129,483.483 148.196,480.819C159.61,475.692 170.019,468.269 178.661,458.839L226.263,480.221C234.612,483.974 238.342,493.782 234.592,502.133C230.841,510.483 221.03,514.212 212.68,510.461Z" style="fill:rgb(0,119,121);fill-rule:nonzero;"/>
                <path d="M148.196,480.819C73.588,440.526 26.406,362.018 26.679,276.35L26.687,273.728L33.038,259.589C37.241,250.232 49.82,248.523 56.325,256.453C57.444,257.817 58.633,259.192 59.88,260.575L59.829,276.456C59.579,354.712 105.544,425.998 176.931,458.063L178.661,458.84C170.019,468.27 159.61,475.692 148.196,480.819Z" style="fill:rgb(0,189,159);fill-rule:nonzero;"/>
            </g>
        </g>
        <path d="M254.151,0.079L254.151,81.759C286.884,73.774 320.545,68.834 353.185,63.929C344.339,40.656 326.838,20.781 302.941,9.619L302.951,9.622C287.114,3.282 270.584,0.214 254.151,0.079Z" style="fill:rgb(0,221,123);fill-rule:nonzero;"/>
        <path d="M254.296,75.557L254.296,196.984C275.596,198.69 297.179,193.56 315.53,181.462C332.192,170.478 345.677,154.4 353.291,134.495C359.633,117.915 361.022,104.61 358.517,88.204C324.455,76.224 288.806,72.029 254.296,75.557Z" style="fill:rgb(0,189,159);fill-rule:nonzero;"/>
        <path d="M353.027,64.361C264.359,37.881 167.365,59.181 101.466,125.501L99.479,127.531L93.221,144.121C89.244,154.585 97.393,165.05 108.99,163.733C110.903,163.516 112.885,163.4 114.914,163.296L127.13,151.002C187.327,90.419 282.822,68.89 357.641,101.225L359.575,101.96C360.183,88.013 357.878,77.126 353.027,64.361Z" style="fill:rgb(0,189,159);fill-rule:nonzero;"/>
        <path d="M254.151,54.342L254.298,88.193C288.604,83.521 324.041,89.928 357.688,102.717L359.688,103.475C360.282,89.862 357.921,76.389 353.185,63.929C320.641,54.211 286.948,50.522 254.151,54.342Z" style="fill:rgb(0,153,133);fill-rule:nonzero;"/>
    </g>
    <g transform="matrix(1,0,0,1,224.459,-321.996)">
        <g id="Layer1">
            <g>
                <g transform="matrix(150,0,0,150,182.574,497.149)">
                    <path d="M0.443,-0.514C0.442,-0.506 0.44,-0.5 0.436,-0.497C0.431,-0.493 0.427,-0.491 0.422,-0.49C0.417,-0.489 0.412,-0.49 0.407,-0.493C0.402,-0.496 0.398,-0.5 0.396,-0.505C0.389,-0.518 0.382,-0.529 0.375,-0.537C0.368,-0.545 0.361,-0.551 0.355,-0.556C0.348,-0.56 0.342,-0.563 0.337,-0.565C0.331,-0.566 0.326,-0.567 0.322,-0.567C0.303,-0.566 0.286,-0.559 0.273,-0.545C0.259,-0.53 0.248,-0.512 0.239,-0.491C0.23,-0.47 0.224,-0.446 0.22,-0.421C0.216,-0.396 0.214,-0.372 0.215,-0.349C0.215,-0.326 0.217,-0.304 0.221,-0.281C0.224,-0.258 0.23,-0.237 0.237,-0.218C0.244,-0.199 0.254,-0.183 0.265,-0.17C0.276,-0.157 0.29,-0.149 0.305,-0.146C0.316,-0.144 0.331,-0.147 0.348,-0.154C0.365,-0.161 0.383,-0.179 0.403,-0.206C0.405,-0.211 0.409,-0.215 0.414,-0.218C0.419,-0.221 0.423,-0.222 0.428,-0.221C0.433,-0.22 0.437,-0.218 0.441,-0.214C0.445,-0.21 0.447,-0.203 0.447,-0.194L0.451,-0.004C0.421,0.012 0.393,0.023 0.368,0.03C0.342,0.036 0.319,0.039 0.3,0.039C0.25,0.039 0.206,0.029 0.169,0.01C0.132,-0.01 0.1,-0.038 0.076,-0.073C0.05,-0.108 0.032,-0.151 0.019,-0.2C0.006,-0.249 -0,-0.302 -0.001,-0.36C-0.002,-0.413 0.003,-0.465 0.014,-0.515C0.025,-0.564 0.044,-0.608 0.069,-0.646C0.094,-0.684 0.127,-0.714 0.168,-0.737C0.209,-0.76 0.258,-0.771 0.317,-0.771C0.34,-0.771 0.364,-0.767 0.391,-0.758C0.417,-0.748 0.442,-0.733 0.465,-0.712L0.443,-0.514Z" style="fill:rgb(0,153,133);fill-rule:nonzero;"/>
                </g>
                <g transform="matrix(150,0,0,150,247.974,497.149)">
                    <path d="M0.39,-0.364C0.39,-0.386 0.389,-0.409 0.387,-0.433C0.384,-0.456 0.38,-0.478 0.374,-0.498C0.367,-0.518 0.358,-0.535 0.347,-0.549C0.336,-0.562 0.321,-0.57 0.304,-0.572C0.286,-0.57 0.271,-0.562 0.26,-0.549C0.249,-0.535 0.24,-0.518 0.234,-0.498C0.227,-0.478 0.223,-0.456 0.221,-0.433C0.218,-0.409 0.217,-0.386 0.217,-0.364C0.217,-0.341 0.218,-0.317 0.221,-0.292C0.223,-0.266 0.227,-0.242 0.234,-0.22C0.241,-0.198 0.249,-0.18 0.261,-0.165C0.272,-0.15 0.286,-0.142 0.304,-0.141C0.321,-0.142 0.336,-0.15 0.347,-0.165C0.358,-0.18 0.367,-0.198 0.374,-0.22C0.38,-0.242 0.384,-0.266 0.387,-0.292C0.389,-0.317 0.39,-0.341 0.39,-0.364ZM0.304,0.039C0.245,0.039 0.197,0.027 0.158,0.004C0.119,-0.02 0.088,-0.051 0.065,-0.09C0.041,-0.128 0.024,-0.171 0.015,-0.22C0.005,-0.268 -0,-0.317 -0.001,-0.366C-0.001,-0.415 0.004,-0.463 0.014,-0.512C0.024,-0.56 0.041,-0.603 0.065,-0.642C0.088,-0.68 0.12,-0.711 0.159,-0.735C0.198,-0.759 0.246,-0.771 0.304,-0.771C0.361,-0.771 0.409,-0.759 0.449,-0.735C0.488,-0.711 0.519,-0.68 0.542,-0.642C0.565,-0.603 0.582,-0.56 0.592,-0.512C0.602,-0.463 0.607,-0.415 0.607,-0.366C0.607,-0.317 0.602,-0.268 0.593,-0.22C0.583,-0.171 0.566,-0.128 0.543,-0.09C0.52,-0.051 0.489,-0.02 0.45,0.004C0.411,0.027 0.362,0.039 0.304,0.039Z" style="fill:rgb(0,153,133);fill-rule:nonzero;"/>
                </g>
                <g transform="matrix(150,0,0,150,339.024,497.149)">
                    <path d="M0.015,-0.751C0.038,-0.752 0.059,-0.753 0.078,-0.756C0.097,-0.758 0.117,-0.76 0.136,-0.762C0.155,-0.764 0.175,-0.766 0.196,-0.767C0.217,-0.768 0.24,-0.769 0.266,-0.768C0.29,-0.768 0.314,-0.765 0.338,-0.759C0.361,-0.753 0.383,-0.744 0.404,-0.733C0.425,-0.722 0.444,-0.707 0.461,-0.69C0.478,-0.672 0.492,-0.651 0.503,-0.628C0.516,-0.6 0.525,-0.563 0.532,-0.518C0.538,-0.472 0.541,-0.424 0.541,-0.374C0.541,-0.35 0.54,-0.326 0.539,-0.303C0.538,-0.279 0.536,-0.256 0.533,-0.235C0.53,-0.214 0.526,-0.194 0.522,-0.176C0.517,-0.157 0.512,-0.141 0.507,-0.128C0.494,-0.097 0.48,-0.071 0.465,-0.051C0.449,-0.03 0.431,-0.014 0.411,-0.002C0.391,0.01 0.369,0.018 0.345,0.023C0.321,0.028 0.295,0.03 0.266,0.03C0.242,0.03 0.218,0.029 0.193,0.027C0.168,0.024 0.142,0.023 0.114,0.023C0.108,0.023 0.1,0.023 0.092,0.024L0.037,0.026C0.028,0.026 0.021,0.026 0.015,0.026L0.015,-0.751ZM0.221,-0.15C0.224,-0.149 0.228,-0.149 0.232,-0.149C0.235,-0.148 0.239,-0.148 0.242,-0.148C0.255,-0.148 0.267,-0.15 0.277,-0.155C0.287,-0.16 0.294,-0.166 0.298,-0.174C0.303,-0.187 0.308,-0.201 0.312,-0.218C0.315,-0.235 0.318,-0.252 0.32,-0.271C0.322,-0.29 0.324,-0.309 0.325,-0.328C0.326,-0.346 0.326,-0.365 0.326,-0.382C0.326,-0.395 0.326,-0.406 0.326,-0.417C0.325,-0.428 0.325,-0.438 0.324,-0.447C0.321,-0.495 0.313,-0.529 0.299,-0.548C0.285,-0.567 0.268,-0.577 0.247,-0.577C0.238,-0.577 0.229,-0.576 0.221,-0.573L0.221,-0.15Z" style="fill:rgb(0,153,133);fill-rule:nonzero;"/>
                </g>
                <g transform="matrix(150,0,0,150,420.174,497.149)">
                    <path d="M0.015,0.025L0.015,-0.752L0.393,-0.752L0.393,-0.565L0.225,-0.565L0.225,-0.456L0.385,-0.456L0.385,-0.276L0.225,-0.276L0.225,-0.167L0.393,-0.167L0.393,0.025L0.015,0.025Z" style="fill:rgb(0,153,133);fill-rule:nonzero;"/>
                </g>
                <g transform="matrix(150,0,0,150,479.124,497.149)">
                    <rect x="0.005" y="-0.008" width="0.357" height="0.164" style="fill:rgb(0,153,133);fill-rule:nonzero;"/>
                </g>
                <g transform="matrix(150,0,0,150,182.574,647.149)">
                    <path d="M0.433,-0.496C0.42,-0.516 0.407,-0.533 0.394,-0.547C0.381,-0.56 0.369,-0.568 0.358,-0.569C0.335,-0.571 0.316,-0.567 0.3,-0.558C0.283,-0.548 0.27,-0.535 0.259,-0.519C0.247,-0.502 0.239,-0.484 0.233,-0.463C0.226,-0.442 0.221,-0.422 0.218,-0.401C0.216,-0.39 0.215,-0.37 0.215,-0.341C0.215,-0.322 0.216,-0.302 0.218,-0.279C0.219,-0.256 0.223,-0.235 0.229,-0.216C0.234,-0.197 0.242,-0.18 0.252,-0.167C0.262,-0.154 0.275,-0.147 0.291,-0.146C0.304,-0.145 0.314,-0.149 0.323,-0.156C0.331,-0.163 0.337,-0.172 0.342,-0.183C0.347,-0.194 0.35,-0.207 0.352,-0.221C0.354,-0.234 0.355,-0.248 0.355,-0.261C0.355,-0.265 0.355,-0.268 0.356,-0.27C0.356,-0.271 0.356,-0.272 0.356,-0.273L0.356,-0.275C0.356,-0.276 0.356,-0.278 0.355,-0.281L0.283,-0.281L0.283,-0.46L0.55,-0.46C0.553,-0.43 0.555,-0.401 0.557,-0.372C0.559,-0.343 0.56,-0.316 0.56,-0.291C0.56,-0.243 0.556,-0.197 0.547,-0.153C0.538,-0.109 0.52,-0.071 0.495,-0.039C0.474,-0.014 0.447,0.005 0.415,0.019C0.383,0.032 0.344,0.039 0.298,0.039L0.282,0.039C0.277,0.039 0.271,0.039 0.266,0.038C0.214,0.033 0.171,0.019 0.137,-0.007C0.102,-0.032 0.075,-0.063 0.055,-0.1C0.034,-0.137 0.02,-0.179 0.011,-0.225C0.002,-0.271 -0.002,-0.318 -0.002,-0.365C-0.002,-0.415 0.004,-0.464 0.016,-0.513C0.027,-0.561 0.046,-0.605 0.072,-0.644C0.103,-0.689 0.139,-0.721 0.181,-0.741C0.222,-0.761 0.272,-0.771 0.329,-0.771C0.354,-0.771 0.384,-0.767 0.417,-0.759C0.45,-0.75 0.481,-0.734 0.512,-0.711L0.48,-0.505C0.479,-0.497 0.477,-0.491 0.473,-0.488C0.468,-0.484 0.464,-0.482 0.459,-0.481C0.454,-0.48 0.448,-0.481 0.444,-0.484C0.439,-0.487 0.435,-0.491 0.433,-0.496Z" style="fill:rgb(0,153,133);fill-rule:nonzero;"/>
                </g>
                <g transform="matrix(150,0,0,150,266.574,647.149)">
                    <path d="M0.531,0.025L0.304,0.025L0.221,-0.147L0.221,0.025L0.015,0.025L0.015,-0.752C0.033,-0.752 0.051,-0.753 0.068,-0.754C0.085,-0.755 0.102,-0.757 0.118,-0.759C0.137,-0.761 0.156,-0.763 0.175,-0.765C0.193,-0.767 0.209,-0.768 0.224,-0.768C0.249,-0.768 0.276,-0.767 0.304,-0.764C0.331,-0.761 0.358,-0.752 0.385,-0.738C0.429,-0.715 0.462,-0.68 0.486,-0.633C0.509,-0.585 0.519,-0.52 0.516,-0.439C0.511,-0.378 0.499,-0.33 0.481,-0.297C0.462,-0.263 0.437,-0.238 0.405,-0.222L0.531,0.025ZM0.221,-0.362C0.228,-0.36 0.234,-0.359 0.241,-0.359C0.253,-0.359 0.263,-0.362 0.272,-0.369C0.281,-0.375 0.288,-0.383 0.294,-0.394C0.299,-0.405 0.303,-0.417 0.306,-0.431C0.309,-0.445 0.31,-0.46 0.31,-0.475C0.31,-0.488 0.309,-0.5 0.307,-0.513C0.305,-0.525 0.302,-0.536 0.297,-0.546C0.292,-0.556 0.285,-0.564 0.277,-0.57C0.269,-0.576 0.259,-0.579 0.247,-0.579C0.243,-0.579 0.239,-0.579 0.234,-0.579C0.229,-0.578 0.225,-0.578 0.221,-0.577L0.221,-0.362Z" style="fill:rgb(0,153,133);fill-rule:nonzero;"/>
                </g>
                <g transform="matrix(150,0,0,150,343.374,647.149)">
                    <path d="M0.015,0.025L0.015,-0.752L0.393,-0.752L0.393,-0.565L0.225,-0.565L0.225,-0.456L0.385,-0.456L0.385,-0.276L0.225,-0.276L0.225,-0.167L0.393,-0.167L0.393,0.025L0.015,0.025Z" style="fill:rgb(0,153,133);fill-rule:nonzero;"/>
                </g>
                <g transform="matrix(150,0,0,150,402.324,647.149)">
                    <path d="M0.015,0.025L0.015,-0.752L0.393,-0.752L0.393,-0.565L0.225,-0.565L0.225,-0.456L0.385,-0.456L0.385,-0.276L0.225,-0.276L0.225,-0.167L0.393,-0.167L0.393,0.025L0.015,0.025Z" style="fill:rgb(0,153,133);fill-rule:nonzero;"/>
                </g>
                <g transform="matrix(150,0,0,150,461.274,647.149)">
                    <path d="M0.015,0.025L0.015,-0.752L0.192,-0.752L0.303,-0.491L0.303,-0.752L0.507,-0.752L0.507,0.025L0.338,0.025L0.221,-0.237L0.221,0.025L0.015,0.025Z" style="fill:rgb(0,153,133);fill-rule:nonzero;"/>
                </g>
            </g>
        </g>
    </g>
</svg>
